<svg width="900" height="520" viewBox="0 0 900 520" fill="none" xmlns="http://www.w3.org/2000/svg">
  <rect width="900" height="520" rx="36" fill="#161A22"/>
  <rect x="70" y="70" width="760" height="380" rx="30" fill="#1F2531" stroke="#2B3342" stroke-width="2"/>
  <rect x="110" y="120" width="260" height="200" rx="22" fill="#232B3B"/>
  <rect x="410" y="120" width="360" height="22" rx="11" fill="#2F394C"/>
  <rect x="410" y="160" width="300" height="22" rx="11" fill="#2F394C"/>
  <rect x="410" y="200" width="260" height="22" rx="11" fill="#2F394C"/>
  <rect x="410" y="240" width="320" height="22" rx="11" fill="#2F394C"/>
  <rect x="410" y="280" width="220" height="22" rx="11" fill="#2F394C"/>
  <rect x="110" y="350" width="180" height="26" rx="13" fill="#FF7A3D"/>
  <rect x="320" y="350" width="140" height="26" rx="13" fill="#2F394C"/>
  <rect x="490" y="350" width="140" height="26" rx="13" fill="#2F394C"/>
  <circle cx="770" cy="138" r="18" fill="#7AA7FF"/>
  <circle cx="720" cy="138" r="18" fill="#5CE1A1"/>
</svg>
