<svg width="900" height="520" viewBox="0 0 900 520" fill="none" xmlns="http://www.w3.org/2000/svg">
  <rect width="900" height="520" rx="36" fill="#161A22"/>
  <rect x="70" y="60" width="300" height="400" rx="34" fill="#1F2531" stroke="#2B3342" stroke-width="2"/>
  <rect x="102" y="108" width="236" height="36" rx="12" fill="#2F394C"/>
  <rect x="102" y="168" width="236" height="150" rx="18" fill="#232B3B"/>
  <rect x="102" y="338" width="236" height="40" rx="12" fill="#2F394C"/>
  <rect x="102" y="392" width="120" height="40" rx="12" fill="#FF7A3D"/>
  <rect x="430" y="110" width="360" height="260" rx="28" fill="#1B202B" stroke="#2B3342" stroke-width="2"/>
  <rect x="462" y="150" width="200" height="22" rx="11" fill="#2F394C"/>
  <rect x="462" y="188" width="260" height="22" rx="11" fill="#2F394C"/>
  <rect x="462" y="226" width="180" height="22" rx="11" fill="#2F394C"/>
  <circle cx="728" cy="252" r="54" fill="#2A3242"/>
  <path d="M712 252H744" stroke="#FF7A3D" stroke-width="12" stroke-linecap="round"/>
  <path d="M728 236V268" stroke="#FF7A3D" stroke-width="12" stroke-linecap="round"/>
  <rect x="430" y="392" width="360" height="80" rx="24" fill="#1F2531"/>
  <rect x="462" y="420" width="140" height="16" rx="8" fill="#2F394C"/>
  <rect x="462" y="446" width="200" height="16" rx="8" fill="#2F394C"/>
</svg>
